<svg width="100" height="15" viewBox="0 0 100 15" fill="none" xmlns="http://www.w3.org/2000/svg">
<path d="M6.7946 0.507726L4.9356 4.27873L0.775604 4.88573C0.607768 4.91111 0.450348 4.98284 0.321058 5.09282C0.191768 5.20281 0.0957394 5.3467 0.043779 5.5083C-0.00818136 5.66989 -0.0140115 5.84279 0.0269447 6.00752C0.0679008 6.17225 0.154018 6.32228 0.275605 6.44073L3.2856 9.37372L2.5736 13.5167C2.54506 13.6841 2.56387 13.8562 2.62792 14.0135C2.69197 14.1707 2.79871 14.307 2.93608 14.4068C3.07346 14.5067 3.236 14.5661 3.40537 14.5785C3.57475 14.5908 3.7442 14.5556 3.8946 14.4767L7.6166 12.5207L11.3386 14.4767C11.489 14.5556 11.6585 14.5908 11.8278 14.5785C11.9972 14.5661 12.1598 14.5067 12.2971 14.4068C12.4345 14.307 12.5412 14.1707 12.6053 14.0135C12.6693 13.8562 12.6882 13.6841 12.6596 13.5167L11.9436 9.37273L14.9536 6.43973C15.0752 6.32128 15.1613 6.17125 15.2023 6.00652C15.2432 5.84179 15.2374 5.66889 15.1854 5.5073C15.1335 5.3457 15.0374 5.20181 14.9082 5.09182C14.7789 4.98183 14.6214 4.91011 14.4536 4.88473L10.2936 4.27773L8.42961 0.507726C8.35423 0.355296 8.23773 0.226978 8.09327 0.137261C7.94882 0.0475431 7.78215 0 7.6121 0C7.44206 0 7.27539 0.0475431 7.13094 0.137261C6.98648 0.226978 6.86998 0.355296 6.7946 0.507726Z" fill="#06C167"/>
<path d="M27.7946 0.507726L25.9356 4.27873L21.7756 4.88573C21.6078 4.91111 21.4503 4.98284 21.3211 5.09282C21.1918 5.20281 21.0957 5.3467 21.0438 5.5083C20.9918 5.66989 20.986 5.84279 21.0269 6.00752C21.0679 6.17225 21.154 6.32228 21.2756 6.44073L24.2856 9.37372L23.5736 13.5167C23.5451 13.6841 23.5639 13.8562 23.6279 14.0135C23.692 14.1707 23.7987 14.307 23.9361 14.4068C24.0735 14.5067 24.236 14.5661 24.4054 14.5785C24.5747 14.5908 24.7442 14.5556 24.8946 14.4767L28.6166 12.5207L32.3386 14.4767C32.489 14.5556 32.6585 14.5908 32.8278 14.5785C32.9972 14.5661 33.1598 14.5067 33.2971 14.4068C33.4345 14.307 33.5412 14.1707 33.6053 14.0135C33.6693 13.8562 33.6882 13.6841 33.6596 13.5167L32.9436 9.37273L35.9536 6.43973C36.0752 6.32128 36.1613 6.17125 36.2023 6.00652C36.2432 5.84179 36.2374 5.66889 36.1854 5.5073C36.1335 5.3457 36.0374 5.20181 35.9082 5.09182C35.7789 4.98183 35.6214 4.91011 35.4536 4.88473L31.2936 4.27773L29.4296 0.507726C29.3542 0.355296 29.2377 0.226978 29.0933 0.137261C28.9488 0.0475431 28.7822 0 28.6121 0C28.4421 0 28.2754 0.0475431 28.1309 0.137261C27.9865 0.226978 27.87 0.355296 27.7946 0.507726Z" fill="#06C167"/>
<path d="M48.7946 0.507726L46.9356 4.27873L42.7756 4.88573C42.6078 4.91111 42.4503 4.98284 42.3211 5.09282C42.1918 5.20281 42.0957 5.3467 42.0438 5.5083C41.9918 5.66989 41.986 5.84279 42.0269 6.00752C42.0679 6.17225 42.154 6.32228 42.2756 6.44073L45.2856 9.37372L44.5736 13.5167C44.5451 13.6841 44.5639 13.8562 44.6279 14.0135C44.692 14.1707 44.7987 14.307 44.9361 14.4068C45.0735 14.5067 45.236 14.5661 45.4054 14.5785C45.5747 14.5908 45.7442 14.5556 45.8946 14.4767L49.6166 12.5207L53.3386 14.4767C53.489 14.5556 53.6585 14.5908 53.8278 14.5785C53.9972 14.5661 54.1598 14.5067 54.2971 14.4068C54.4345 14.307 54.5412 14.1707 54.6053 14.0135C54.6693 13.8562 54.6882 13.6841 54.6596 13.5167L53.9436 9.37273L56.9536 6.43973C57.0752 6.32128 57.1613 6.17125 57.2023 6.00652C57.2432 5.84179 57.2374 5.66889 57.1854 5.5073C57.1335 5.3457 57.0374 5.20181 56.9082 5.09182C56.7789 4.98183 56.6214 4.91011 56.4536 4.88473L52.2936 4.27773L50.4296 0.507726C50.3542 0.355296 50.2377 0.226978 50.0933 0.137261C49.9488 0.0475431 49.7822 0 49.6121 0C49.4421 0 49.2754 0.0475431 49.1309 0.137261C48.9865 0.226978 48.87 0.355296 48.7946 0.507726Z" fill="#06C167"/>
<path d="M69.7946 0.507726L67.9356 4.27873L63.7756 4.88573C63.6078 4.91111 63.4503 4.98284 63.3211 5.09282C63.1918 5.20281 63.0957 5.3467 63.0438 5.5083C62.9918 5.66989 62.986 5.84279 63.0269 6.00752C63.0679 6.17225 63.154 6.32228 63.2756 6.44073L66.2856 9.37372L65.5736 13.5167C65.5451 13.6841 65.5639 13.8562 65.6279 14.0135C65.692 14.1707 65.7987 14.307 65.9361 14.4068C66.0735 14.5067 66.236 14.5661 66.4054 14.5785C66.5747 14.5908 66.7442 14.5556 66.8946 14.4767L70.6166 12.5207L74.3386 14.4767C74.489 14.5556 74.6585 14.5908 74.8278 14.5785C74.9972 14.5661 75.1598 14.5067 75.2971 14.4068C75.4345 14.307 75.5412 14.1707 75.6053 14.0135C75.6693 13.8562 75.6882 13.6841 75.6596 13.5167L74.9436 9.37273L77.9536 6.43973C78.0752 6.32128 78.1613 6.17125 78.2023 6.00652C78.2432 5.84179 78.2374 5.66889 78.1854 5.5073C78.1335 5.3457 78.0374 5.20181 77.9082 5.09182C77.7789 4.98183 77.6214 4.91011 77.4536 4.88473L73.2936 4.27773L71.4296 0.507726C71.3542 0.355296 71.2377 0.226978 71.0933 0.137261C70.9488 0.0475431 70.7822 0 70.6121 0C70.4421 0 70.2754 0.0475431 70.1309 0.137261C69.9865 0.226978 69.87 0.355296 69.7946 0.507726Z" fill="#06C167"/>
<path d="M90.7946 0.507726L88.9356 4.27873L84.7756 4.88573C84.6078 4.91111 84.4503 4.98284 84.3211 5.09282C84.1918 5.20281 84.0957 5.3467 84.0438 5.5083C83.9918 5.66989 83.986 5.84279 84.0269 6.00752C84.0679 6.17225 84.154 6.32228 84.2756 6.44073L87.2856 9.37372L86.5736 13.5167C86.5451 13.6841 86.5639 13.8562 86.6279 14.0135C86.692 14.1707 86.7987 14.307 86.9361 14.4068C87.0735 14.5067 87.236 14.5661 87.4054 14.5785C87.5747 14.5908 87.7442 14.5556 87.8946 14.4767L91.6166 12.5207L95.3386 14.4767C95.489 14.5556 95.6585 14.5908 95.8278 14.5785C95.9972 14.5661 96.1598 14.5067 96.2971 14.4068C96.4345 14.307 96.5412 14.1707 96.6053 14.0135C96.6693 13.8562 96.6882 13.6841 96.6596 13.5167L95.9436 9.37273L98.9536 6.43973C99.0752 6.32128 99.1613 6.17125 99.2023 6.00652C99.2432 5.84179 99.2374 5.66889 99.1854 5.5073C99.1335 5.3457 99.0374 5.20181 98.9082 5.09182C98.7789 4.98183 98.6214 4.91011 98.4536 4.88473L94.2936 4.27773L92.4296 0.507726C92.3542 0.355296 92.2377 0.226978 92.0933 0.137261C91.9488 0.0475431 91.7822 0 91.6121 0C91.4421 0 91.2754 0.0475431 91.1309 0.137261C90.9865 0.226978 90.87 0.355296 90.7946 0.507726Z" fill="#06C167"/>
</svg>
